<svg xmlns="http://www.w3.org/2000/svg" xmlns:xlink="http://www.w3.org/1999/xlink" width="500" zoomAndPan="magnify" viewBox="0 0 375 374.999991" height="500" preserveAspectRatio="xMidYMid meet" version="1.0"><defs><g/><clipPath id="42e3d3b6c7"><path d="M 37.5 139.835938 L 106.691406 139.835938 L 106.691406 213.148438 L 37.5 213.148438 Z M 37.5 139.835938 " clip-rule="nonzero"/></clipPath><clipPath id="1c1dddf1b4"><path d="M 77.246094 173.992188 L 46.363281 173.992188 C 45.167969 173.992188 44.300781 172.839844 44.625 171.675781 L 53.101562 141.167969 C 53.320312 140.382812 54.03125 139.835938 54.84375 139.835938 L 85.726562 139.835938 C 86.921875 139.835938 87.789062 140.992188 87.464844 142.15625 L 78.988281 172.660156 C 78.769531 173.449219 78.058594 173.992188 77.246094 173.992188 Z M 57.1875 197.019531 L 61.554688 181.3125 C 61.878906 180.148438 61.011719 178.992188 59.8125 178.992188 L 43.9375 178.992188 C 43.128906 178.992188 42.417969 179.539062 42.199219 180.324219 L 37.832031 196.03125 C 37.507812 197.195312 38.375 198.351562 39.574219 198.351562 L 55.449219 198.351562 C 56.257812 198.351562 56.96875 197.804688 57.1875 197.019531 Z M 65.222656 180.324219 L 56.742188 210.832031 C 56.421875 211.996094 57.285156 213.148438 58.484375 213.148438 L 89.367188 213.148438 C 90.175781 213.148438 90.890625 212.605469 91.109375 211.816406 L 99.585938 181.3125 C 99.910156 180.148438 99.042969 178.992188 97.84375 178.992188 L 66.964844 178.992188 C 66.152344 178.992188 65.441406 179.539062 65.222656 180.324219 Z M 87.019531 155.96875 L 82.65625 171.675781 C 82.332031 172.839844 83.199219 173.992188 84.398438 173.992188 L 100.273438 173.992188 C 101.082031 173.992188 101.792969 173.449219 102.011719 172.660156 L 106.378906 156.953125 C 106.703125 155.789062 105.835938 154.636719 104.636719 154.636719 L 88.761719 154.636719 C 87.953125 154.636719 87.242188 155.179688 87.019531 155.96875 Z M 87.019531 155.96875 " clip-rule="nonzero"/></clipPath><linearGradient x1="114.296422" gradientTransform="matrix(0.145231, 0, 0, 0.146623, 37.763905, 139.837357)" y1="-47.634019" x2="358.613289" gradientUnits="userSpaceOnUse" y2="547.61316" id="0e09cbb011"><stop stop-opacity="1" stop-color="rgb(36.099243%, 88.198853%, 90.19928%)" offset="0"/><stop stop-opacity="1" stop-color="rgb(36.099243%, 88.198853%, 90.19928%)" offset="0.0625"/><stop stop-opacity="1" stop-color="rgb(36.071777%, 88.165283%, 90.21759%)" offset="0.09375"/><stop stop-opacity="1" stop-color="rgb(35.894775%, 87.956238%, 90.339661%)" offset="0.109375"/><stop stop-opacity="1" stop-color="rgb(35.597229%, 87.602234%, 90.54718%)" offset="0.125"/><stop stop-opacity="1" stop-color="rgb(35.301208%, 87.24823%, 90.753174%)" offset="0.140625"/><stop stop-opacity="1" stop-color="rgb(35.003662%, 86.894226%, 90.960693%)" offset="0.15625"/><stop stop-opacity="1" stop-color="rgb(34.706116%, 86.540222%, 91.166687%)" offset="0.171875"/><stop stop-opacity="1" stop-color="rgb(34.408569%, 86.186218%, 91.372681%)" offset="0.1875"/><stop stop-opacity="1" stop-color="rgb(34.111023%, 85.832214%, 91.5802%)" offset="0.203125"/><stop stop-opacity="1" stop-color="rgb(33.815002%, 85.47821%, 91.786194%)" offset="0.21875"/><stop stop-opacity="1" stop-color="rgb(33.517456%, 85.122681%, 91.993713%)" offset="0.234375"/><stop stop-opacity="1" stop-color="rgb(33.21991%, 84.768677%, 92.199707%)" offset="0.25"/><stop stop-opacity="1" stop-color="rgb(32.922363%, 84.414673%, 92.405701%)" offset="0.265625"/><stop stop-opacity="1" stop-color="rgb(32.624817%, 84.060669%, 92.61322%)" offset="0.28112"/><stop stop-opacity="1" stop-color="rgb(32.476807%, 83.883667%, 92.71698%)" offset="0.28125"/><stop stop-opacity="1" stop-color="rgb(32.328796%, 83.706665%, 92.819214%)" offset="0.296875"/><stop stop-opacity="1" stop-color="rgb(32.03125%, 83.352661%, 93.025208%)" offset="0.3125"/><stop stop-opacity="1" stop-color="rgb(31.733704%, 82.998657%, 93.232727%)" offset="0.328125"/><stop stop-opacity="1" stop-color="rgb(31.436157%, 82.644653%, 93.438721%)" offset="0.34375"/><stop stop-opacity="1" stop-color="rgb(31.138611%, 82.290649%, 93.64624%)" offset="0.359375"/><stop stop-opacity="1" stop-color="rgb(30.84259%, 81.936646%, 93.852234%)" offset="0.375"/><stop stop-opacity="1" stop-color="rgb(30.545044%, 81.582642%, 94.058228%)" offset="0.390625"/><stop stop-opacity="1" stop-color="rgb(30.247498%, 81.227112%, 94.265747%)" offset="0.40625"/><stop stop-opacity="1" stop-color="rgb(29.949951%, 80.873108%, 94.471741%)" offset="0.421875"/><stop stop-opacity="1" stop-color="rgb(29.653931%, 80.519104%, 94.67926%)" offset="0.4375"/><stop stop-opacity="1" stop-color="rgb(29.356384%, 80.1651%, 94.885254%)" offset="0.453125"/><stop stop-opacity="1" stop-color="rgb(29.058838%, 79.811096%, 95.091248%)" offset="0.46875"/><stop stop-opacity="1" stop-color="rgb(28.761292%, 79.457092%, 95.298767%)" offset="0.484375"/><stop stop-opacity="1" stop-color="rgb(28.463745%, 79.103088%, 95.504761%)" offset="0.5"/><stop stop-opacity="1" stop-color="rgb(28.167725%, 78.749084%, 95.710754%)" offset="0.515625"/><stop stop-opacity="1" stop-color="rgb(27.870178%, 78.395081%, 95.918274%)" offset="0.53125"/><stop stop-opacity="1" stop-color="rgb(27.572632%, 78.041077%, 96.124268%)" offset="0.546875"/><stop stop-opacity="1" stop-color="rgb(27.275085%, 77.687073%, 96.331787%)" offset="0.5625"/><stop stop-opacity="1" stop-color="rgb(26.977539%, 77.331543%, 96.537781%)" offset="0.578125"/><stop stop-opacity="1" stop-color="rgb(26.681519%, 76.977539%, 96.743774%)" offset="0.59375"/><stop stop-opacity="1" stop-color="rgb(26.383972%, 76.623535%, 96.951294%)" offset="0.609375"/><stop stop-opacity="1" stop-color="rgb(26.086426%, 76.269531%, 97.157288%)" offset="0.625"/><stop stop-opacity="1" stop-color="rgb(25.788879%, 75.915527%, 97.364807%)" offset="0.640625"/><stop stop-opacity="1" stop-color="rgb(25.491333%, 75.561523%, 97.570801%)" offset="0.65625"/><stop stop-opacity="1" stop-color="rgb(25.195312%, 75.20752%, 97.776794%)" offset="0.671875"/><stop stop-opacity="1" stop-color="rgb(24.897766%, 74.853516%, 97.984314%)" offset="0.6875"/><stop stop-opacity="1" stop-color="rgb(24.60022%, 74.499512%, 98.190308%)" offset="0.703125"/><stop stop-opacity="1" stop-color="rgb(24.302673%, 74.145508%, 98.397827%)" offset="0.71875"/><stop stop-opacity="1" stop-color="rgb(24.005127%, 73.789978%, 98.603821%)" offset="0.71888"/><stop stop-opacity="1" stop-color="rgb(23.857117%, 73.612976%, 98.707581%)" offset="0.734375"/><stop stop-opacity="1" stop-color="rgb(23.709106%, 73.435974%, 98.809814%)" offset="0.75"/><stop stop-opacity="1" stop-color="rgb(23.41156%, 73.08197%, 99.017334%)" offset="0.765625"/><stop stop-opacity="1" stop-color="rgb(23.114014%, 72.727966%, 99.223328%)" offset="0.78125"/><stop stop-opacity="1" stop-color="rgb(22.816467%, 72.373962%, 99.429321%)" offset="0.796875"/><stop stop-opacity="1" stop-color="rgb(22.520447%, 72.019958%, 99.636841%)" offset="0.8125"/><stop stop-opacity="1" stop-color="rgb(22.2229%, 71.665955%, 99.842834%)" offset="0.828125"/><stop stop-opacity="1" stop-color="rgb(22.036743%, 71.443176%, 99.972534%)" offset="0.84375"/><stop stop-opacity="1" stop-color="rgb(21.998596%, 71.398926%, 100%)" offset="0.875"/><stop stop-opacity="1" stop-color="rgb(21.998596%, 71.398926%, 100%)" offset="1"/></linearGradient></defs><g clip-path="url(#42e3d3b6c7)"><g clip-path="url(#1c1dddf1b4)"><path fill="url(#0e09cbb011)" d="M 37.507812 139.835938 L 37.507812 213.148438 L 106.691406 213.148438 L 106.691406 139.835938 Z M 37.507812 139.835938 " fill-rule="nonzero"/></g></g><g fill="#ffffff" fill-opacity="1"><g transform="translate(124.816828, 187.239007)"><g><path d="M 28.921875 -34.546875 L 29.953125 -31.796875 L 39.40625 -31.796875 L 39.40625 -27.15625 L 26.9375 -27.15625 L 21.875 -18.4375 L 32.3125 -19 L 30.9375 -25.09375 L 37.25 -25.09375 L 40.09375 -12.71875 L 33.734375 -12.71875 L 33.34375 -14.390625 L 14.734375 -13.28125 L 14.734375 -18.4375 L 19.859375 -27.15625 L 13.5 -27.15625 L 13.5 -31.796875 L 22.953125 -31.796875 L 21.921875 -34.546875 Z M 12.71875 -12.546875 L 9.203125 4.46875 L 2.15625 4.46875 L 5.671875 -12.546875 Z M 37.421875 -0.171875 L 38.03125 -0.171875 L 38.546875 -2.328125 L 41.46875 -2.328125 L 40.171875 4.21875 L 31.625 4.21875 L 31.625 -11.265625 L 37.421875 -11.265625 Z M 11.90625 -0.34375 L 14.09375 -0.34375 L 15.296875 -11.34375 L 21.1875 -11.34375 L 19.296875 4.25 L 13.359375 4.25 Z M 23.15625 -11.34375 L 29.046875 -11.34375 L 29.046875 4.25 L 23.15625 4.25 Z M 8.6875 -23.8125 L 12.46875 -15.5625 L 5.421875 -15.5625 L 1.640625 -23.8125 Z M 8.6875 -34.203125 L 12.46875 -25.953125 L 5.421875 -25.953125 L 1.640625 -34.203125 Z M 8.6875 -34.203125 "/></g></g></g><g fill="#ffffff" fill-opacity="1"><g transform="translate(167.779305, 187.239007)"><g><path d="M 28.96875 -5.078125 L 32.140625 -9.921875 L 19.6875 -9.921875 L 19.6875 -14.1875 L 20.546875 -17.53125 L 18.609375 -17.53125 L 18.609375 -22.734375 L 21.921875 -22.734375 L 22.90625 -26.421875 L 18.953125 -26.421875 L 18.953125 -31.375 L 24.234375 -31.375 L 25.046875 -34.5 L 32.3125 -34.5 L 31.5 -31.375 L 40.515625 -31.375 L 40.515625 -26.421875 L 30.171875 -26.421875 L 29.21875 -22.734375 L 40.859375 -22.734375 L 40.859375 -17.53125 L 27.84375 -17.53125 L 27.078125 -14.609375 L 39.921875 -14.609375 L 39.921875 -9.796875 L 33.640625 0.046875 L 37.515625 4.296875 L 29.390625 4.296875 L 20.109375 -6.359375 L 27.84375 -6.359375 Z M 5.25 -31.625 L 5.890625 -34.375 L 11.6875 -34.375 L 11.125 -31.625 L 18.265625 -31.625 L 18.21875 -26.390625 L 10.0625 -26.390625 L 8.296875 -17.53125 L 9.796875 -17.53125 L 9.796875 -24.328125 L 16.375 -24.328125 L 16.375 -17.53125 L 18.484375 -17.53125 L 18.484375 -12.890625 L 16.375 -12.890625 L 16.375 -8.59375 L 19.296875 -8.984375 L 19.296875 -3.90625 L 16.375 -3.53125 L 16.375 4.296875 L 9.796875 4.296875 L 9.796875 -2.703125 L 2.28125 -1.765625 L 2.28125 -6.828125 L 9.796875 -7.78125 L 9.796875 -12.890625 L 1.984375 -12.890625 L 1.984375 -17.140625 L 4.078125 -26.390625 L 2.28125 -26.390625 L 2.328125 -31.625 Z M 5.25 -31.625 "/></g></g></g><g fill="#ffffff" fill-opacity="1"><g transform="translate(210.741783, 187.239007)"><g><path d="M 21.828125 -4.859375 L 15.171875 -10.703125 L 23.640625 -10.703125 L 26 -8.6875 L 30.25 -12.640625 L 15 -12.640625 L 15 -17.1875 L 39.359375 -17.1875 L 39.359375 -12.640625 L 30.71875 -4.6875 L 41.078125 4 L 31.890625 4 L 26.46875 -0.78125 L 21.3125 4 L 12.25 4 Z M 36.65625 -22.8125 L 37.25 -22.8125 L 37.6875 -24.5 L 40.609375 -24.5 L 39.453125 -18.953125 L 30.03125 -18.953125 L 30.03125 -29.953125 L 22.125 -29.953125 L 22.125 -18.609375 L 14.21875 -18.609375 L 12.765625 -22.859375 L 15.59375 -22.859375 L 15.59375 -34.203125 L 36.65625 -34.203125 Z M 13.96875 -3.875 L 13.96875 1.25 L 4.46875 4.34375 L 4.46875 -18.265625 L 2.1875 -18.265625 L 2.1875 -23.03125 L 10.875 -23.03125 L 10.875 -2.921875 Z M 9.203125 -34.15625 L 10.78125 -26.9375 L 3.875 -26.9375 L 2.234375 -34.15625 Z M 9.203125 -34.15625 "/></g></g></g><g fill="#ffffff" fill-opacity="1"><g transform="translate(253.704261, 187.239007)"><g><path d="M 31.84375 -22.296875 L 41 -22.296875 L 41 -17.0625 L 31.84375 -17.0625 L 31.84375 4.390625 L 25.015625 4.390625 L 25.015625 -17.0625 L 15.640625 -17.0625 L 15.640625 -22.296875 L 25.015625 -22.296875 L 25.015625 -34.71875 L 31.84375 -34.71875 Z M 16.15625 -3.609375 L 16.15625 1.5 L 5.625 4.9375 L 5.625 -20.890625 L 2.578125 -20.890625 L 2.578125 -25.65625 L 12.203125 -25.65625 L 12.203125 -2.328125 Z M 10.875 -34.5 L 12.46875 -27.28125 L 5.546875 -27.28125 L 3.90625 -34.5 Z M 10.875 -34.5 "/></g></g></g></svg>